<?xml version="1.0" encoding="iso-8859-1"?>
<!-- Generator: Adobe Illustrator 19.0.0, SVG Export Plug-In . SVG Version: 6.00 Build 0)  -->
<svg version="1.1" id="Capa_1" xmlns="http://www.w3.org/2000/svg" xmlns:xlink="http://www.w3.org/1999/xlink" x="0px" y="0px"
	 viewBox="0 0 512 512" style="enable-background:new 0 0 512 512;" xml:space="preserve">
<g>
	<g>
		<path d="M458.667,85.333H53.333C23.936,85.333,0,109.269,0,138.667v234.667c0,29.397,23.936,53.333,53.333,53.333h405.333
			c29.397,0,53.333-23.936,53.333-53.333V138.667C512,109.269,488.064,85.333,458.667,85.333z M188.16,274.859l-128,106.667
			c-1.984,1.664-4.416,2.475-6.827,2.475c-3.072,0-6.101-1.301-8.213-3.84c-3.776-4.523-3.157-11.264,1.365-15.04l128-106.667
			c4.523-3.755,11.264-3.136,15.04,1.365C193.301,264.363,192.683,271.104,188.16,274.859z M256,277.696
			c-11.733,0-23.488-3.499-33.728-10.517L47.317,147.477c-4.864-3.328-6.101-9.963-2.795-14.827
			c3.307-4.864,9.941-6.123,14.827-2.773l174.955,119.701c13.163,9.003,30.187,9.003,43.371,0l174.955-119.701
			c4.885-3.307,11.52-2.091,14.827,2.773c3.328,4.864,2.091,11.499-2.773,14.827L289.728,267.179
			C279.488,274.197,267.733,277.696,256,277.696z M466.859,380.16c-2.112,2.539-5.141,3.84-8.192,3.84
			c-2.411,0-4.821-0.811-6.827-2.475l-128-106.667c-4.523-3.776-5.141-10.496-1.365-15.04c3.776-4.501,10.496-5.12,15.04-1.365
			l128,106.667C470.016,368.896,470.635,375.637,466.859,380.16z"/>
	</g>
</g>
<g>
</g>
<g>
</g>
<g>
</g>
<g>
</g>
<g>
</g>
<g>
</g>
<g>
</g>
<g>
</g>
<g>
</g>
<g>
</g>
<g>
</g>
<g>
</g>
<g>
</g>
<g>
</g>
<g>
</g>
</svg>
