<?xml version="1.0" encoding="iso-8859-1"?>
<!-- Generator: Adobe Illustrator 19.0.0, SVG Export Plug-In . SVG Version: 6.00 Build 0)  -->
<svg version="1.1" id="Capa_1" xmlns="http://www.w3.org/2000/svg" xmlns:xlink="http://www.w3.org/1999/xlink" x="0px" y="0px"
	 viewBox="0 0 512.004 512.004" style="enable-background:new 0 0 512.004 512.004;" xml:space="preserve">
<path style="fill:#754C29;" d="M477.933,211.319L138.669,407.194l17.033,29.5l339.264-195.875
	c8.116-4.761,10.841-15.193,6.081-23.309C496.328,209.471,486.032,206.711,477.933,211.319z"/>
<path style="fill:#FF9811;" d="M134.411,399.802l-48.543,18.174c-16.232,9.513-21.674,30.386-12.161,46.618
	c9.428,16.079,30.02,21.597,46.226,12.383l40.027-32.924l-4.258-7.375l-17.033-29.5L134.411,399.802z"/>
<path style="fill:#ED1C24;" d="M204.756,250.664c-1.048-20.754-31.323-68.088-35.922-100.084
	c-7.46-53.346,24.697-118.47,25.549-120.557c-3.407,2.214-109.009,67.543-138.092,151.803
	c-25.055-14.938-20.175-46.737-19.656-49.914C16.733,168.882,7.084,210.51,8.71,252.47l0.426,8.516
	c2.112,42.377,30.199,79.04,70.558,92.121l-9.802-38.937c-6.302-25.098,0.451-59.026,25.549-65.405
	c5.825-0.758,11.684-1.235,17.561-1.405c11.429,0.051,22.313,4.871,30.028,13.302c11.863,12.229,18.097,28.845,17.203,45.86
	L150.2,349.845C179.539,330.632,206.646,288.238,204.756,250.664z"/>
<path d="M508.566,213.295c-7.043-12.229-22.67-16.428-34.891-9.385c-0.009,0.009-0.017,0.009-0.026,0.017L141.778,395.543
	c-2.078-3.602-6.464-5.169-10.356-3.713l-48.5,18.191c-0.443,0.162-0.86,0.358-1.269,0.596
	c-20.448,11.625-27.593,37.616-15.968,58.064c11.625,20.448,37.617,27.593,58.064,15.968c0.162-0.094,0.324-0.187,0.485-0.281
	c0.4-0.238,0.792-0.502,1.15-0.801l40.027-32.924c3.211-2.649,4.037-7.23,1.959-10.833l331.855-191.6l0,0
	c12.221-7.051,16.411-22.679,9.351-34.9C508.575,213.312,508.566,213.303,508.566,213.295z M115.113,469.933
	c-12.349,6.83-27.891,2.359-34.721-9.981c-6.66-12.025-2.597-27.167,9.172-34.261l41.057-15.329l17.68,30.659l0,0l0.647,1.116
	L115.113,469.933z M490.682,233.436L490.682,233.436L158.793,425.052l-8.516-14.75l331.889-191.617
	c4.071-2.359,9.283-0.971,11.633,3.1c0.009,0.009,0.009,0.017,0.017,0.026c2.351,4.071,0.954,9.283-3.117,11.633L490.682,233.436z"
	/>
<path d="M79.694,361.58c-0.894,0-1.78-0.145-2.632-0.417C33.45,346.839,3.098,307.212,0.628,261.378l-0.426-8.516
	c-1.788-43.638,8.286-86.951,29.151-125.317c2.419-4.037,7.648-5.348,11.684-2.93c2.989,1.788,4.59,5.229,4.028,8.67
	c-2.197,12.025,0.537,24.433,7.597,34.414C84.872,92.661,171.491,34.546,189.256,23.211c3.177-2.052,7.298-1.882,10.288,0.426
	c2.921,2.223,4.045,6.098,2.776,9.538c-0.06,0.136-0.605,1.337-0.673,1.473c-7.273,15.747-30.556,70.558-24.382,114.749
	c4.335,18.804,10.935,37.02,19.656,54.232c8.457,18.813,15.755,35.062,16.343,46.618c2.172,43.05-28.444,87.105-58.362,106.709
	c-3.935,2.572-9.215,1.465-11.787-2.47c-1.269-1.933-1.686-4.301-1.175-6.558l9.802-42.488c0.605-14.367-4.71-28.359-14.699-38.698
	c-6.004-6.762-14.571-10.705-23.616-10.867l-1.013,0.051c-5.008,0.085-10.007,0.451-14.972,1.116
	c-20.277,5.11-24.254,35.283-19.298,55.058l9.811,38.885c1.15,4.565-1.618,9.189-6.183,10.339
	C81.091,361.495,80.392,361.58,79.694,361.58z M31.287,164.351c-10.484,27.993-15.261,57.792-14.069,87.658l0.426,8.516
	c1.78,32.89,20.584,62.459,49.607,78.026l-5.621-22.304c-7.665-30.599,2.265-68.25,31.706-75.735
	c6.038-0.996,12.144-1.533,18.259-1.601l0.979-0.068c13.822-0.102,27.039,5.621,36.433,15.755
	c13.558,13.899,20.703,32.813,19.732,52.205c-0.017,0.545-0.085,1.09-0.204,1.627l-4.199,18.216
	c18.608-19.92,33.265-48.764,31.911-75.548l0,0c-3.143-14.086-8.142-27.695-14.861-40.469
	c-9.445-18.651-16.488-38.417-20.967-58.839c-4.735-33.869,5.331-71.69,15.116-98.406c-34.253,25.191-91.371,73.964-111.155,131.219
	c-0.835,2.419-2.708,4.335-5.11,5.221c-2.41,0.869-5.076,0.622-7.281-0.681C42.418,183.539,35.094,174.775,31.287,164.351z"/>
<g>
</g>
<g>
</g>
<g>
</g>
<g>
</g>
<g>
</g>
<g>
</g>
<g>
</g>
<g>
</g>
<g>
</g>
<g>
</g>
<g>
</g>
<g>
</g>
<g>
</g>
<g>
</g>
<g>
</g>
</svg>
