<svg id="Capa_1" enable-background="new 0 0 512 512" height="512" viewBox="0 0 512 512" width="512" xmlns="http://www.w3.org/2000/svg"><g><g><path d="m480.486 428.991h-269.25c-9.146 0-16.56-7.414-16.56-16.56v-342.574c0-9.146 7.414-16.56 16.56-16.56h269.249c9.146 0 16.56 7.414 16.56 16.56v342.574c0 9.146-7.414 16.56-16.559 16.56z" fill="#9dc6fb"/><path d="m225.834 392.068v-301.848c0-2.172 1.761-3.933 3.933-3.933h232.189c2.172 0 3.933 1.761 3.933 3.933v301.847c0 2.172-1.761 3.933-3.933 3.933h-232.189c-2.172.001-3.933-1.76-3.933-3.932z" fill="#dff6fd"/><path d="m421.43 33.366h-37.406v-7.762c0-9.998-8.105-18.104-18.104-18.104h-40.119c-9.998 0-18.104 8.106-18.104 18.104v7.762h-37.406c-4.215 0-7.633 3.417-7.633 7.632v50.464c0 4.216 3.417 7.633 7.633 7.633h151.139c4.215 0 7.633-3.417 7.633-7.633v-50.463c0-4.216-3.417-7.633-7.633-7.633z" fill="#ffd064"/><path d="m461.956 86.288h-21.543c2.172 0 3.933 1.761 3.933 3.933v301.847c0 2.172-1.761 3.933-3.933 3.933h21.543c2.172 0 3.933-1.761 3.933-3.933v-301.847c-.001-2.173-1.761-3.933-3.933-3.933z" fill="#c8effe"/><g fill="#ecbe6b"><path d="m421.43 33.366h-22.677c4.215 0 7.633 3.417 7.633 7.632v50.464c0 4.215-3.417 7.633-7.633 7.633h22.677c4.216 0 7.633-3.417 7.633-7.633v-50.463c0-4.216-3.417-7.633-7.633-7.633z"/><path d="m361.347 25.604v7.763h22.677v-7.763c0-9.998-8.105-18.104-18.104-18.104h-22.677c9.999 0 18.104 8.105 18.104 18.104z"/></g><path d="m300.763 504.5h-269.249c-9.146 0-16.56-7.414-16.56-16.56v-342.573c0-9.146 7.414-16.56 16.56-16.56h269.249c9.146 0 16.56 7.414 16.56 16.56v342.573c0 9.146-7.414 16.56-16.56 16.56z" fill="#407093"/><path d="m46.111 467.577v-301.847c0-2.172 1.761-3.933 3.933-3.933h232.189c2.172 0 3.933 1.761 3.933 3.933v301.847c0 2.172-1.761 3.933-3.933 3.933h-232.189c-2.172 0-3.933-1.761-3.933-3.933z" fill="#e7ecf6"/><path d="m241.708 108.876h-37.406v-7.762c0-9.998-8.105-18.104-18.104-18.104h-40.119c-9.998 0-18.104 8.106-18.104 18.104v7.762h-37.406c-4.215 0-7.633 3.417-7.633 7.632v50.464c0 4.216 3.417 7.633 7.633 7.633h151.138c4.215 0 7.633-3.417 7.633-7.633v-50.464c0-4.215-3.417-7.632-7.632-7.632z" fill="#ecbe6b"/><path d="m300.763 128.807h-24.84c9.146 0 16.56 7.414 16.56 16.56v342.573c0 9.146-7.414 16.56-16.56 16.56h24.84c9.146 0 16.56-7.414 16.56-16.56v-342.573c0-9.146-7.414-16.56-16.56-16.56z" fill="#365e7d"/><path d="m282.233 161.797h-21.543c2.172 0 3.933 1.761 3.933 3.933v301.847c0 2.172-1.761 3.933-3.933 3.933h21.543c2.172 0 3.933-1.761 3.933-3.933v-301.847c0-2.172-1.761-3.933-3.933-3.933z" fill="#d8e2f1"/><g fill="#eab14d"><path d="m181.624 101.113v7.762h22.677v-7.762c0-9.998-8.105-18.104-18.104-18.104h-22.677c9.999 0 18.104 8.106 18.104 18.104z"/><path d="m241.708 108.875h-22.678c4.215 0 7.633 3.417 7.633 7.632v50.464c0 4.216-3.417 7.633-7.633 7.633h22.677c4.215 0 7.633-3.417 7.633-7.633v-50.464c0-4.214-3.417-7.632-7.632-7.632z"/></g><path d="m480.486 53.298c-9.003 0-15.758 0-24.795 0 9.146 0 16.56 7.414 16.56 16.56v342.573c0 9.146-7.414 16.56-16.56 16.56h24.795c9.146 0 16.56-7.414 16.56-16.56v-342.574c-.001-9.145-7.415-16.559-16.56-16.559z" fill="#80b4fb"/></g><g><path d="m497.046 184.847c4.143 0 7.5-3.357 7.5-7.5v-107.49c0-13.267-10.793-24.06-24.06-24.06h-43.923v-4.799c0-8.345-6.788-15.133-15.133-15.133h-29.906v-.263c0-14.117-11.485-25.602-25.603-25.602h-40.119c-14.118 0-25.604 11.485-25.604 25.604v.263h-29.906c-8.345 0-15.133 6.788-15.133 15.133v4.799h-43.922c-13.267 0-24.06 10.793-24.06 24.06v5.677c-.325-.012-.651-.025-.979-.025h-40.119c-14.118 0-25.604 11.485-25.604 25.604v.263h-29.906c-8.344 0-15.132 6.788-15.132 15.132v4.799h-43.923c-13.267 0-24.06 10.794-24.06 24.061v169.67c0 4.143 3.358 7.5 7.5 7.5s7.5-3.357 7.5-7.5v-169.673c0-4.996 4.064-9.061 9.06-9.061h43.923v17.99h-25.393c-6.304 0-11.433 5.129-11.433 11.434v301.847c0 6.304 5.129 11.433 11.433 11.433h232.189c6.304 0 11.433-5.129 11.433-11.433v-301.847c0-6.305-5.129-11.434-11.433-11.434h-25.393v-17.99h43.923c4.995 0 9.06 4.064 9.06 9.061v342.573c0 4.995-4.064 9.06-9.06 9.06h-269.249c-4.996 0-9.06-4.064-9.06-9.06v-137.9c0-4.143-3.358-7.5-7.5-7.5s-7.5 3.357-7.5 7.5v137.9c0 13.267 10.793 24.06 24.06 24.06h269.25c13.267 0 24.06-10.793 24.06-24.06v-51.45h155.663c13.267 0 24.06-10.793 24.06-24.144v-200c0-4.143-3.357-7.5-7.5-7.5s-7.5 3.357-7.5 7.5v200 .042s0 .028 0 .042c0 4.995-4.064 9.06-9.06 9.06h-155.664v-17.989h137.133c6.304 0 11.433-5.129 11.433-11.433v-301.847c0-6.305-5.129-11.434-11.433-11.434h-25.393v-17.989h43.923c4.995 0 9.06 4.064 9.06 9.06v107.489c0 4.142 3.357 7.5 7.5 7.5zm-226.887-143.848c0-.073.06-.133.133-.133h37.406c4.143 0 7.5-3.357 7.5-7.5v-7.763c0-5.847 4.757-10.604 10.604-10.604h40.119c5.847 0 10.604 4.757 10.604 10.604v7.763c0 4.143 3.357 7.5 7.5 7.5h37.406c.073 0 .133.06.133.133v50.464c0 .073-.06.133-.133.133-2.832 0-146.334 0-151.139 0-.073 0-.133-.06-.133-.133 0-6.114 0-44.761 0-50.464zm-67.982 28.858c0-4.995 4.064-9.06 9.06-9.06h43.922v17.989h-25.393c-6.304 0-11.433 5.129-11.433 11.434v11.154h-6.532c0-8.325-3.712-15.549-9.625-20.264v-11.253zm-111.74 46.651c0-.072.06-.132.132-.132h37.406c4.142 0 7.5-3.357 7.5-7.5v-7.763c0-5.847 4.757-10.604 10.604-10.604h40.119c5.844 0 10.604 4.789 10.604 10.604v7.762.001c0 4.143 3.358 7.5 7.5 7.5h37.406c.073 0 .132.06.132.132 0 .217.085 50.598-.132 50.598h-151.139c-.073 0-.132-.06-.132-.133 0-6.114 0-44.76 0-50.465zm188.229 347.502h-225.055v-294.713h22.004c1.118 7.227 7.456 12.809 14.954 12.809h151.139c7.448 0 13.813-5.432 14.954-12.809h22.004zm179.722-75.509h-133.565v-76.106h104.038c4.143 0 7.5-3.357 7.5-7.5s-3.357-7.5-7.5-7.5h-104.038v-48.75h104.038c4.143 0 7.5-3.357 7.5-7.5s-3.357-7.5-7.5-7.5h-104.038v-48.75h104.038c4.143 0 7.5-3.357 7.5-7.5s-3.357-7.5-7.5-7.5h-104.038v-24.527c0-13.267-10.793-24.061-24.06-24.061h-43.923v-4.799c0-8.345-6.789-15.133-15.132-15.133h-8.374v-7.588h22.003c1.105 7.145 7.385 12.809 14.955 12.809h151.139c7.515 0 13.844-5.626 14.955-12.809h22.003v294.714z"/><path d="m249.138 245.403h-166c-4.142 0-7.5 3.357-7.5 7.5s3.358 7.5 7.5 7.5h166c4.142 0 7.5-3.357 7.5-7.5s-3.357-7.5-7.5-7.5z"/><path d="m249.138 309.153h-166c-4.142 0-7.5 3.357-7.5 7.5s3.358 7.5 7.5 7.5h166c4.142 0 7.5-3.357 7.5-7.5s-3.357-7.5-7.5-7.5z"/><path d="m249.138 372.903h-166c-4.142 0-7.5 3.357-7.5 7.5s3.358 7.5 7.5 7.5h166c4.142 0 7.5-3.357 7.5-7.5s-3.357-7.5-7.5-7.5z"/></g></g></svg>