<svg id="Capa_1" enable-background="new 0 0 511.928 511.928" height="512" viewBox="0 0 511.928 511.928" width="512" xmlns="http://www.w3.org/2000/svg"><g><g><path d="m345.978 503.882-30.528-15.264c-1.408-.704-3.065-.704-4.472 0l-17.764 8.882-9.764.382c-3.325 1.662-7.236-.755-7.236-4.472l5.5-48.41 61-4 10.5 23.5v34.91c0 3.717-3.912 6.134-7.236 4.472z" fill="#dc4955"/><path d="m353.214 448.5-44.5-11.5-35.5 11.5v16 34.91c0 3.72 3.91 6.13 7.24 4.47l12.76-6.38v-29c0-2.209 1.791-4 4-4h56z" fill="#d82f3c"/><path d="m353.214 497.5v1.91c0 3.72-3.91 6.13-7.24 4.47l-18.73-9.37-11.79-5.89c-.7-.36-1.47-.53-2.24-.53h19.82c1.1 0 2.19.26 3.18.76z" fill="#d82f3c"/><path d="m437.714 85.5-23 1.5v-28l15.5-8.5h12.5c5.523 0 10 4.477 10 10v14.245l-5 .755c0 5.523-4.477 10-10 10z" fill="#b7e546"/><path d="m442.714 169h-28.5v-39h28.5c5.523 0 10 4.477 10 10v19c0 5.523-4.477 10-10 10z" fill="#dc4955"/><path d="m465.214 208h-51v-39l10.5-5 16 5h24.5c5.523 0 10 4.477 10 10v19c0 5.523-4.477 10-10 10z" fill="#ffbf54"/><path d="m443.714 405.5h-29.5v-39l15.5-6.5 14 6.5c5.523 0 10 4.477 10 10v19c0 5.523-4.477 10-10 10z" fill="#ffbf54"/><path d="m452.714 73.5v6c0 5.523-4.477 10-10 10h-28.5l-10.5-16.5 10.5-22.5h16v20c0 1.657 1.343 3 3 3z" fill="#abd641"/><path d="m475.214 192v6c0 5.523-4.477 10-10 10h-51l-10.5-16 10.5-23 7.5-5 8.5 5v19c0 2.209 1.791 4 4 4z" fill="#ffa442"/><path d="m452.714 153v6c0 5.523-4.477 10-10 10h-28.5l-10.5-17 10.5-22h16v19c0 2.209 1.791 4 4 4z" fill="#d82f3c"/><path d="m453.714 389.5v6c0 5.523-4.477 10-10 10h-29.5l-23.5-16.5 23.5-22.5 8.5-2.5 7.5 2.5v19c0 2.209 1.791 4 4 4z" fill="#ffa442"/><path d="m466.714 327.5h-52v-39l16-6.5 11.213 6.5h24.787c5.523 0 10 4.477 10 10v19c0 5.523-4.477 10-10 10z" fill="#94ccd4"/><path d="m457.214 366.5h-43v-39l25.5-6.5 17.5 6.5c5.523 0 10 4.477 10 10v19c0 5.523-4.477 10-10 10z" fill="#dc4955"/><path d="m467.214 350.5v6c0 5.523-4.477 10-10 10h-43l-10.5-19.5 10.5-19.5 8.5-3.5 7.5 3.5v19c0 2.209 1.791 4 4 4z" fill="#d82f3c"/><path d="m476.714 311.5v6c0 5.523-4.477 10-10 10h-52l-11-17.5 11-21.5 8-6.5 8 6.5v19c0 2.209 1.791 4 4 4z" fill="#6fbbc6"/><path d="m443.214 288.5h-29v-39h29c5.523 0 10 4.477 10 10v19c0 5.523-4.477 10-10 10z" fill="#b7e546"/><path d="m453.214 272.5v6c0 5.523-4.477 10-10 10h-29l-10.5-19.5 10.5-19.5h16v20c0 1.657 1.343 3 3 3z" fill="#abd641"/><path d="m92.714 19 13.5-11.5h288c11.046 0 20 8.954 20 20v401c0 11.046-10.454 16.5-21.5 16.5l-301-3z" fill="#5d748a"/><path d="m414.214 428.5c0 11.05-8.95 20-20 20h-308l-25.5-209.5 25.5-231.5h20v412c0 4.971 4.029 9 9 9z" fill="#3f597d"/><path d="m351.214 288.5h-206c-5.523 0-10-4.477-10-10v-101c0-5.523 4.477-10 10-10l3-6h211c5.523 0 10 4.477 10 10v105l-8 2c0 5.523-4.477 10-10 10z" fill="#faf8f8"/><path d="m369.214 276.5v7c0 5.523-4.477 10-10 10h-218c-5.523 0-10-4.477-10-10v-112c0-5.523 4.477-10 10-10h7v109c0 3.314 2.686 6 6 6z" fill="#f0e9e6"/><path d="m85.714 445-24.5-1.5c-11.046 0-20-8.954-20-20l-3.5-393.5c0-11.046 6.454-22.5 17.5-22.5h31v421l-4.5 7.5z" fill="#ffbf54"/><path d="m86.214 428.5v20h-31c-11.046 0-20-8.954-20-20v-401c0-11.05 8.95-20 20-20v414c0 3.866 3.134 7 7 7z" fill="#ffa442"/></g><g><path d="m121.714 441h-28v-342c0-4.142-3.358-7.5-7.5-7.5s-7.5 3.358-7.5 7.5v342h-23.5c-6.893 0-12.5-5.607-12.5-12.5v-401c0-6.893 5.607-12.5 12.5-12.5h23.5v49c0 4.142 3.358 7.5 7.5 7.5s7.5-3.358 7.5-7.5v-49h162c4.142 0 7.5-3.358 7.5-7.5s-3.358-7.5-7.5-7.5h-169.5-31c-15.164 0-27.5 12.336-27.5 27.5v401c0 15.164 12.336 27.5 27.5 27.5h66.5c4.142 0 7.5-3.358 7.5-7.5s-3.358-7.5-7.5-7.5z"/><path d="m197.488 190.301c-1.413-3.436-4.725-5.655-8.439-5.655-.002 0-.005 0-.008 0-3.718.003-7.03 2.229-8.438 5.67-.023.057-.045.113-.067.17l-26.926 70.697c-1.474 3.871.468 8.204 4.339 9.678 3.872 1.475 8.204-.469 9.678-4.339l4.866-12.777h32.909l4.814 12.755c1.134 3.003 3.987 4.854 7.019 4.854.879 0 1.775-.156 2.646-.485 3.875-1.462 5.832-5.79 4.369-9.665l-26.681-70.7c-.026-.067-.053-.135-.081-.203zm-19.281 48.445 10.817-28.401 10.718 28.401z"/><path d="m287.453 271.858h52.261c4.142 0 7.5-3.358 7.5-7.5s-3.358-7.5-7.5-7.5h-37.978l42.041-60.959c1.582-2.294 1.762-5.277.466-7.745s-3.853-4.013-6.64-4.013h-48.83c-4.142 0-7.5 3.358-7.5 7.5s3.358 7.5 7.5 7.5h34.546l-42.041 60.959c-1.582 2.294-1.762 5.277-.466 7.745s3.853 4.013 6.641 4.013z"/><path d="m272.801 220.5h-37.171c-4.142 0-7.5 3.358-7.5 7.5s3.358 7.5 7.5 7.5h37.171c4.142 0 7.5-3.358 7.5-7.5s-3.358-7.5-7.5-7.5z"/><path d="m466.714 281h-6v-21.5c0-9.649-7.851-17.5-17.5-17.5h-21.5v-26.5h43.5c9.649 0 17.5-7.851 17.5-17.5v-19c0-9.649-7.851-17.5-17.5-17.5h-5v-21.5c0-9.649-7.851-17.5-17.5-17.5h-21v-25.5h21c9.649 0 17.5-7.851 17.5-17.5v-19c0-9.649-7.851-17.5-17.5-17.5h-21v-15.5c0-15.164-12.336-27.5-27.5-27.5h-103.5c-4.142 0-7.5 3.358-7.5 7.5s3.358 7.5 7.5 7.5h103.5c6.893 0 12.5 5.607 12.5 12.5v401c0 6.893-5.607 12.5-12.5 12.5-66.219 0-170.955 0-237.5 0-4.142 0-7.5 3.358-7.5 7.5s3.358 7.5 7.5 7.5h109v43.41c0 4.364 2.216 8.34 5.929 10.634 3.742 1.52 5.382 3.071 12.161.546l29.41-14.705 29.409 14.705c3.903 1.952 8.449 1.748 12.162-.546s5.929-6.27 5.929-10.634v-43.41h33.5c15.164 0 27.5-12.336 27.5-27.5v-15.5h22c9.649 0 17.5-7.851 17.5-17.5l-.034-21.912c7.858-1.718 13.534-8.722 13.534-17.088v-19c0-1.449-.197-2.85-.53-4.198 5.918-2.81 10.03-8.827 10.03-15.802v-19c0-9.649-7.851-17.5-17.5-17.5zm-121 214.365-26.908-13.454c-1.751-.876-3.671-1.314-5.592-1.314-1.92 0-3.84.438-5.589 1.313l-26.91 13.455v-39.365h65v39.365zm123.5-196.865v19c0 1.378-1.122 2.5-2.5 2.5h-9.5-35v-24h21 23.5c1.378 0 2.5 1.122 2.5 2.5zm-9.5 39v19c0 1.378-1.122 2.5-2.5 2.5h-13.5-22v-24h35.5c1.378 0 2.5 1.122 2.5 2.5zm-16.5-80.5c1.378 0 2.5 1.122 2.5 2.5v19c0 1.378-1.122 2.5-2.5 2.5h-21.5v-24zm24.5-78v19c0 1.378-1.122 2.5-2.5 2.5h-43.5v-24h21 22.5c1.378 0 2.5 1.122 2.5 2.5zm-25-41.5c1.378 0 2.5 1.122 2.5 2.5v19c0 1.378-1.122 2.5-2.5 2.5h-21v-24zm0-79.5c1.378 0 2.5 1.122 2.5 2.5v19c0 1.378-1.122 2.5-2.5 2.5h-21v-24zm3.5 337.5c0 1.378-1.122 2.5-2.5 2.5h-22v-24h22c1.378 0 2.5 1.122 2.5 2.5z"/><path d="m376.714 283.5v-46.5c0-4.142-3.358-7.5-7.5-7.5s-7.5 3.358-7.5 7.5v46.5c0 1.378-1.122 2.5-2.5 2.5h-218c-1.378 0-2.5-1.122-2.5-2.5v-112c0-1.378 1.122-2.5 2.5-2.5h218c1.378 0 2.5 1.122 2.5 2.5v30.5c0 4.142 3.358 7.5 7.5 7.5s7.5-3.358 7.5-7.5v-30.5c0-9.649-7.851-17.5-17.5-17.5h-218c-9.649 0-17.5 7.851-17.5 17.5v112c0 9.649 7.851 17.5 17.5 17.5h218c9.649 0 17.5-7.851 17.5-17.5z"/></g></g></svg>