<svg id="Capa_1" enable-background="new 0 0 512 512" height="512" viewBox="0 0 512 512" width="512" xmlns="http://www.w3.org/2000/svg"><g><g><circle cx="256" cy="256" fill="#4bc3ef" r="248.5"/><path d="m280.048 480.452c-137.243 0-248.5-111.258-248.5-248.5 0-62.5 23.125-119.565 61.219-163.233-52.222 45.554-85.267 112.538-85.267 187.281 0 137.242 111.257 248.5 248.5 248.5 74.743 0 141.727-33.045 187.282-85.268-43.669 38.094-100.733 61.22-163.234 61.22z" fill="#1badde"/><path d="m352.194 103.694h-48.097c-48.699 0-88.177 39.478-88.177 88.177v64.129h-56.113c-4.427 0-8.016 3.589-8.016 8.016v48.097c0 4.427 3.589 8.016 8.016 8.016h56.113v143.866l40.08 40.505c13.651 0 27.029-1.145 40.081-3.262v-181.109h41.838c3.678 0 6.884-2.504 7.777-6.072l12.025-48.097c1.264-5.059-2.562-9.96-7.777-9.96h-53.862v-64.129c0-13.282 10.767-24.048 24.048-24.048h32.065c4.427 0 8.016-3.589 8.016-8.016v-48.097c-.001-4.428-3.591-8.016-8.017-8.016z" fill="#fff"/><path d="m295.313 479.336c-15.84 1.528-31.93 1.507-48.233-.233-4.05-.432-7.113-3.945-7.113-8.018v-150.956c0-13.282-10.767-24.048-24.048-24.048h-32.065c-4.427 0-8.016-3.589-8.016-8.016v-32.065h-16.032c-4.427 0-8.016 3.589-8.016 8.016v48.097c0 4.427 3.589 8.016 8.016 8.016h56.113v181.109c13.052 2.118 26.43 3.262 40.081 3.262s27.029-1.145 40.081-3.262v-21.975z" fill="#e3f5ff"/></g><g><path d="m437.02 74.98c-48.353-48.351-112.64-74.98-181.02-74.98s-132.667 26.629-181.02 74.98c-48.351 48.353-74.98 112.64-74.98 181.02s26.629 132.667 74.98 181.02c48.353 48.351 112.64 74.98 181.02 74.98s132.667-26.629 181.02-74.98c48.351-48.353 74.98-112.64 74.98-181.02s-26.629-132.667-74.98-181.02zm-10.607 351.433c-34.091 34.091-76.596 56.708-122.832 65.917v-164.701h34.338c7.133 0 13.323-4.833 15.053-11.753l12.025-48.097c1.167-4.668.137-9.52-2.824-13.312s-7.418-5.967-12.229-5.967h-53.862c-4.142 0-7.5 3.358-7.5 7.5s3.358 7.5 7.5 7.5h53.862c.075 0 .251 0 .407.199.155.198.112.37.094.443l-12.024 48.097c-.058.23-.264.391-.501.391h-41.838c-4.142 0-7.5 3.358-7.5 7.5v174.684c-10.714 1.437-21.59 2.186-32.582 2.186-64.374 0-124.894-25.068-170.413-70.587s-70.587-106.039-70.587-170.413 25.068-124.894 70.587-170.413 106.039-70.587 170.413-70.587 124.894 25.068 170.413 70.587 70.587 106.039 70.587 170.413-25.068 124.894-70.587 170.413z"/><path d="m352.193 96.193h-48.097c-52.757 0-95.677 42.921-95.677 95.678v56.629h-48.613c-8.556 0-15.516 6.96-15.516 15.516v48.097c0 8.556 6.96 15.516 15.516 15.516h48.613v136.791c0 4.142 3.358 7.5 7.5 7.5s7.5-3.358 7.5-7.5v-144.291c0-4.142-3.358-7.5-7.5-7.5h-56.113c-.285 0-.516-.231-.516-.516v-48.097c0-.285.231-.516.516-.516h56.113c4.142 0 7.5-3.358 7.5-7.5v-64.129c0-44.486 36.192-80.678 80.677-80.678h48.097c.285 0 .516.231.516.516v48.097c0 .285-.231.516-.516.516h-32.064c-17.396 0-31.548 14.152-31.548 31.548v32.064c0 4.142 3.358 7.5 7.5 7.5s7.5-3.358 7.5-7.5v-32.064c0-9.125 7.423-16.548 16.548-16.548h32.064c8.556 0 15.516-6.96 15.516-15.516v-48.097c0-8.555-6.96-15.516-15.516-15.516z"/></g></g></svg>